<?xml version="1.0" encoding="UTF-8" standalone="no"?>
<!-- Created with Inkscape (http://www.inkscape.org/) -->

<svg
   width="100mm"
   height="100mm"
   viewBox="0 0 100 100"
   version="1.1"
   id="svg1"
   xml:space="preserve"
   xmlns="http://www.w3.org/2000/svg"
   xmlns:svg="http://www.w3.org/2000/svg"><defs
     id="defs1"><linearGradient
       id="swatch18"><stop
         style="stop-color:#000000;stop-opacity:1;"
         offset="0"
         id="stop18" /></linearGradient><linearGradient
       id="swatch11"><stop
         style="stop-color:#37280d;stop-opacity:1;"
         offset="0"
         id="stop11" /></linearGradient></defs><g
     id="layer1"><g
       id="g10"
       transform="matrix(1.9341114,0,0,1.9341114,-48.239863,-38.77336)"
       style="display:none"><path
         d="m 40.626461,18.368905 c -0.08402,-1.645469 -0.08389,-1.629194 0.252181,5.017781 0.67215,13.29395 -8.900008,11.69426 -13.872538,27.74456 -4.97252,16.05029 6.512936,13.351576 14.132987,11.527978 7.618745,-1.823286 15.741258,2.337395 23.107992,4.930856 4.113852,1.448283 11.677575,5.380328 11.540539,-5.01375 -0.137036,-10.394078 -6.718444,-9.100757 -7.701465,-9.198193 -0.98302,-0.09744 -28.445166,-0.09767 -28.445166,-0.09767 v 0 c -4.38474,-5.60107 -1.107242,-8.987563 2.279448,-17.193783 3.38669,-8.20621 -1.041797,-12.765112 -1.041797,-12.765112 0,0 -0.168162,-3.307201 -0.252181,-4.952669 z m 33.391288,44.788222 c -0.253659,6.22779 -7.069763,2.717056 -7.069763,2.717056 2.532387,-2.523876 3.172431,-7.315532 2.584771,-10.461146 2.140528,0.193799 4.738651,1.5163 4.484992,7.74409 z"
         style="fill:currentColor;fill-opacity:1;paint-order:markers fill stroke"
         id="path10" /><path
         style="fill:currentColor;fill-opacity:1;stroke-width:1;paint-order:markers fill stroke"
         d="m 45.228303,25.579928 c 0,0 3.546067,5.40982 -1.175491,12.994865 -5.713056,9.177857 -2.30847,12.769658 -2.30847,12.769658 1.630968,-9.29496 15.033744,-14.194092 3.483961,-25.764523 z"
         id="path2"
         transform="matrix(0.83954262,0,0,0.83954262,9.293597,7.8108184)" /><path
         style="fill:currentColor;fill-opacity:1;stroke-width:1;paint-order:markers fill stroke"
         d="m 45.228303,25.579928 c 0,0 3.546067,5.40982 -1.175491,12.994865 -5.713056,9.177857 -2.30847,12.769658 -2.30847,12.769658 1.630968,-9.29496 15.033744,-14.194092 3.483961,-25.764523 z"
         id="path6"
         transform="matrix(0.70908761,0,0,0.70908761,22.2819,14.508959)" /><path
         style="fill:currentColor;fill-opacity:1;stroke-width:1;paint-order:markers fill stroke"
         d="m 45.228303,25.579928 c 0,0 3.546067,5.40982 -1.175491,12.994865 -5.713056,9.177857 -2.30847,12.769658 -2.30847,12.769658 1.630968,-9.29496 15.033744,-14.194092 3.483961,-25.764523 z"
         id="path8"
         transform="matrix(0.56202923,0,0,0.56202923,34.754157,22.059591)" /></g><g
       id="g49"
       transform="matrix(1.6414573,0,0,1.6414573,-28.501933,-24.826639)"
       style="display:inline"><path
         d="m 70.122852,35.299137 1.085721,-0.478523 c 0.02187,-0.01078 0.04394,-0.02171 0.06563,-0.03256 7.25e-4,9.3e-4 0.0013,0.0022 0.0021,0.0031 l 0.934826,-0.411861 c -0.158056,-0.216475 -0.319798,-0.430936 -0.485242,-0.643372 -3.462124,1.731446 -8.579925,2.894229 -14.281298,3.244763 -1.198343,0.07364 -2.410718,0.110623 -3.625102,0.110588 -9.453405,-0.0077 -17.873121,-2.2392 -21.032308,-5.574337 2.281134,3.618118 10.901921,6.176235 20.833354,6.182052 1.164176,6.3e-5 2.326432,-0.03537 3.47524,-0.105937 4.871914,-0.299557 9.687987,-0.975023 13.027112,-2.293917 z"
         style="display:inline;fill:currentColor;fill-opacity:1;stroke-linecap:round;stroke-linejoin:bevel;stroke-miterlimit:0.4;stroke-opacity:0.996078;paint-order:stroke markers fill"
         id="path20" /><path
         style="display:inline;fill:currentColor;fill-opacity:1;stroke-width:0.45649;paint-order:markers fill stroke"
         d="m 46.226754,16.370901 c 0,0 1.193144,3.350409 -0.395517,8.047978 -1.922268,5.684029 -0.776731,7.908503 -0.776731,7.908503 0.548773,-5.756553 5.0584,-8.790683 1.172248,-15.956481 z"
         id="path22" /><path
         d="m 24.479643,59.057377 a 8.9447994,9.5745544 0 0 1 -0.75551,0.931209 c 4.490927,8.75692 14.130776,14.811538 25.298198,14.811499 2.857166,-6e-6 5.697487,-0.40502 8.422225,-1.20096 0.727367,-0.212471 1.440584,-0.450483 2.137854,-0.713135 l -0.129191,-0.993737 c -0.766275,0.29899 -1.552551,0.566882 -2.357479,0.802018 -2.611882,0.763023 -5.334568,1.151306 -8.073409,1.151351 -10.953832,-2.6e-5 -20.374614,-6.077244 -24.542688,-14.788245 z"
         style="display:inline;fill:currentColor;fill-opacity:1;stroke:none;stroke-width:0.932744;stroke-linecap:butt;stroke-linejoin:miter;stroke-miterlimit:2;stroke-dasharray:none;stroke-dashoffset:0;stroke-opacity:0.996078;paint-order:stroke markers fill"
         id="path46" /><path
         d="m 31.452861,28.719177 c -5.403189,4.03366 -8.951514,9.745835 -10.05365,15.992306 a 8.9447994,9.5745544 0 0 1 1.07797,0.688847 c 0.944641,-5.958526 4.20743,-11.44332 9.248014,-15.378907 -0.181243,-0.430765 -0.272298,-0.866172 -0.272334,-1.302246 z"
         style="display:inline;fill:currentColor;fill-opacity:1;stroke:none;stroke-width:0.932744;stroke-linecap:butt;stroke-linejoin:miter;stroke-miterlimit:2;stroke-dasharray:none;stroke-dashoffset:0;stroke-opacity:0.996078;paint-order:stroke markers fill"
         id="path44" /><text
         xml:space="preserve"
         style="font-style:normal;font-variant:normal;font-weight:normal;font-stretch:normal;font-size:9.02653px;font-family:'Frank Ruehl CLM';-inkscape-font-specification:'Frank Ruehl CLM, Normal';font-variant-ligatures:normal;font-variant-caps:normal;font-variant-numeric:normal;font-variant-east-asian:normal;text-align:start;writing-mode:lr-tb;direction:ltr;baseline-shift:baseline;text-anchor:start;display:inline;fill:currentColor;fill-opacity:1;stroke:none;stroke-width:1.3556;stroke-linecap:round;stroke-linejoin:bevel;stroke-miterlimit:0.4;stroke-dasharray:none;stroke-opacity:0.996078;paint-order:stroke markers fill"
         x="34.571465"
         y="44.344147"
         id="text20"
         transform="scale(0.78549108,1.2730889)"><tspan
           style="font-style:normal;font-variant:normal;font-weight:normal;font-stretch:normal;font-size:9.02653px;font-family:'Frank Ruehl CLM';-inkscape-font-specification:'Frank Ruehl CLM, Normal';font-variant-ligatures:normal;font-variant-caps:normal;font-variant-numeric:normal;font-variant-east-asian:normal;text-align:start;direction:ltr;baseline-shift:baseline;text-anchor:start;fill:currentColor;fill-opacity:1;stroke-width:1.3556"
           x="34.571465"
           y="44.344147"
           id="tspan47">DAILY GRIND</tspan></text><path
         style="display:inline;fill:currentColor;fill-opacity:1;stroke-width:0.45649;paint-order:markers fill stroke"
         d="m 50.934602,16.370901 c 0,0 1.193144,3.350409 -0.395518,8.047978 -1.922268,5.684029 -0.776731,7.908503 -0.776731,7.908503 0.548774,-5.756553 5.058402,-8.790683 1.172249,-15.956481 z"
         id="path23" /><path
         style="display:inline;fill:currentColor;fill-opacity:1;stroke-width:0.45649;paint-order:markers fill stroke"
         d="m 55.642451,16.370901 c 0,0 1.193143,3.350409 -0.395519,8.047978 -1.922268,5.684029 -0.776731,7.908503 -0.776731,7.908503 0.548774,-5.756553 5.058402,-8.790683 1.17225,-15.956481 z"
         id="path25" /><path
         d="m 23.724133,59.988586 c -1.725381,-3.364343 -2.690787,-7.127644 -2.690792,-11.09958 1.6e-5,-1.410142 0.124007,-2.80674 0.36587,-4.177523 a 8.9447994,9.5745544 0 0 0 -4.035413,-1.029912 8.9447994,9.5745544 0 0 0 -8.9446737,9.57461 8.9447994,9.5745544 0 0 0 8.9446737,9.574609 8.9447994,9.5745544 0 0 0 6.360335,-2.842204 z"
         style="display:none;fill:currentColor;fill-opacity:1;stroke:none;stroke-width:0.932744;stroke-linecap:round;stroke-linejoin:bevel;stroke-miterlimit:0.4;stroke-dasharray:none;stroke-opacity:0.996078;paint-order:stroke markers fill"
         id="path47" /><path
         d="m 22.477181,45.40033 a 8.9447994,9.5745544 0 0 0 -1.07797,-0.688847 c -0.241863,1.370783 -0.365854,2.767381 -0.36587,4.177523 5e-6,3.971936 0.965411,7.735237 2.690792,11.09958 a 8.9447994,9.5745544 0 0 0 0.75551,-0.931209 c -1.470166,-3.07255 -2.286687,-6.472694 -2.286682,-10.049516 10e-6,-1.21554 0.09612,-2.421044 0.28422,-3.607531 z"
         style="display:inline;fill:currentColor;fill-opacity:1;stroke:none;stroke-width:0;stroke-linecap:round;stroke-linejoin:bevel;stroke-miterlimit:0.4;stroke-dasharray:none;stroke-dashoffset:0;stroke-opacity:0.996078;paint-order:stroke markers fill"
         id="path45" /></g><g
       id="g1"
       style="display:none;fill:currentColor;fill-opacity:1"
       transform="matrix(0.21413186,0,0,0.21413186,1.3828489,45.741656)"><path
         d="M 68.413926,50.778855 A 14.95138,26.359369 0.846 0 0 53.854025,24.201756 14.95138,26.359369 0.846 0 0 38.514363,50.338344 a 14.95138,26.359369 0.846 0 0 14.559909,26.577093 14.95138,26.359369 0.846 0 0 0.231347,-0.02291 c -0.09018,-0.07882 -0.318092,-0.410491 -0.677385,-1.000446 -1.655037,-2.717614 -3.21377,-7.966884 0.49932,-16.287806 5.40845,-12.120174 0.09633,-24.113497 0.09633,-24.113497 -10e-7,-10e-7 4.992343,7.868801 2.902811,18.629997 -0.684135,3.523403 -3.252733,8.860701 -3.960287,12.380103 -0.91353,4.54406 -0.126894,7.605724 0.781321,9.446415 0.267364,0.542252 0.398815,0.85534 0.401173,0.939723 A 14.95138,26.359369 0.846 0 0 68.413899,50.778853 Z"
         style="stroke-width:1.0903;paint-order:markers fill stroke"
         id="path49" /></g></g></svg>
