<?xml version="1.0" encoding="UTF-8" standalone="no"?>
<!-- Created with Inkscape (http://www.inkscape.org/) -->

<svg
   width="100mm"
   height="100mm"
   viewBox="0 0 100 100"
   version="1.1"
   id="svg1"
   xml:space="preserve"
   xmlns="http://www.w3.org/2000/svg"
   xmlns:svg="http://www.w3.org/2000/svg"><defs
     id="defs1"><linearGradient
       id="swatch18"><stop
         style="stop-color:#000000;stop-opacity:0.99649102;"
         offset="0"
         id="stop18" /></linearGradient><linearGradient
       id="swatch11"><stop
         style="stop-color:#37280d;stop-opacity:1;"
         offset="0"
         id="stop11" /></linearGradient></defs><g
     id="layer1"><g
       id="g1"
       style="display:none"
       transform="matrix(1.834352,0,0,1.834352,-38.936641,-42.741411)"><ellipse
         style="fill:currentColor;fill-opacity:1;stroke:none;stroke-width:1.0903;stroke-dasharray:none;stroke-opacity:1;paint-order:markers fill stroke"
         id="path12"
         cx="48.483955"
         cy="50.558132"
         rx="26.359369"
         ry="14.95138" /><path
         style="fill:currentColor;fill-opacity:1;stroke:none;stroke-width:0;stroke-linecap:butt;stroke-linejoin:bevel;stroke-miterlimit:0.4;stroke-dasharray:none;stroke-dashoffset:0;stroke-opacity:1;paint-order:normal"
         d="m 74.843324,50.558131 c 10e-7,10e-7 -7.94861,-4.865747 -18.674937,-2.604077 -3.511989,0.740511 -8.807939,3.394336 -12.315543,4.158176 -4.528842,0.986232 -7.601445,0.247321 -9.456448,-0.631268 -1.30727,-0.619165 -1.301032,-0.480076 0.06041,0.319448 2.74377,1.611307 8.016163,3.084409 16.276523,-0.761521 12.031965,-5.601946 24.10999,-0.480759 24.109991,-0.480758 z"
         id="path17"
         transform="matrix(-1,0,0,1,108.25705,0)" /><g
         id="g9"
         transform="translate(-0.76926991,-15.057676)"
         style="display:none"><text
           xml:space="preserve"
           style="font-style:normal;font-variant:normal;font-weight:600;font-stretch:normal;font-size:6.15416px;font-family:'Source Serif Pro';-inkscape-font-specification:'Source Serif Pro, Semi-Bold';font-variant-ligatures:normal;font-variant-caps:normal;font-variant-numeric:normal;font-variant-east-asian:normal;text-align:center;writing-mode:lr-tb;direction:ltr;text-anchor:middle;fill:currentColor;fill-opacity:1;stroke-width:0.0272575;stroke-linejoin:bevel;stroke-miterlimit:0.4"
           x="60.869873"
           y="73.043312"
           id="text8"><tspan
             id="tspan8"
             style="font-style:normal;font-variant:normal;font-weight:600;font-stretch:normal;font-size:6.15416px;font-family:'Source Serif Pro';-inkscape-font-specification:'Source Serif Pro, Semi-Bold';font-variant-ligatures:normal;font-variant-caps:normal;font-variant-numeric:normal;font-variant-east-asian:normal;fill:currentColor;fill-opacity:1;stroke-width:0.0272576"
             x="60.869873"
             y="73.043312">Grind</tspan></text><text
           xml:space="preserve"
           style="font-style:normal;font-variant:normal;font-weight:600;font-stretch:normal;font-size:6.15416px;font-family:'Source Serif Pro';-inkscape-font-specification:'Source Serif Pro, Semi-Bold';font-variant-ligatures:normal;font-variant-caps:normal;font-variant-numeric:normal;font-variant-east-asian:normal;text-align:center;writing-mode:lr-tb;direction:ltr;text-anchor:middle;fill:currentColor;fill-opacity:1;stroke-width:0.0272575;stroke-linejoin:bevel;stroke-miterlimit:0.4"
           x="41.174126"
           y="60.916737"
           id="text9"><tspan
             id="tspan9"
             style="font-style:normal;font-variant:normal;font-weight:600;font-stretch:normal;font-size:6.15416px;font-family:'Source Serif Pro';-inkscape-font-specification:'Source Serif Pro, Semi-Bold';font-variant-ligatures:normal;font-variant-caps:normal;font-variant-numeric:normal;font-variant-east-asian:normal;fill:currentColor;fill-opacity:1;stroke-width:0.0272576"
             x="41.174126"
             y="60.916737">Daily</tspan></text></g></g><g
       id="g10"
       transform="matrix(1.9341114,0,0,1.9341114,-48.239863,-38.77336)"
       style="display:inline"><path
         d="m 40.626461,18.368905 c -0.08402,-1.645469 -0.08389,-1.629194 0.252181,5.017781 0.67215,13.29395 -8.900008,11.69426 -13.872538,27.74456 -4.97252,16.05029 6.512936,13.351576 14.132987,11.527978 7.618745,-1.823286 15.741258,2.337395 23.107992,4.930856 4.113852,1.448283 11.677575,5.380328 11.540539,-5.01375 -0.137036,-10.394078 -6.718444,-9.100757 -7.701465,-9.198193 -0.98302,-0.09744 -28.445166,-0.09767 -28.445166,-0.09767 v 0 c -4.38474,-5.60107 -1.107242,-8.987563 2.279448,-17.193783 3.38669,-8.20621 -1.041797,-12.765112 -1.041797,-12.765112 0,0 -0.168162,-3.307201 -0.252181,-4.952669 z m 33.391288,44.788222 c -0.253659,6.22779 -7.069763,2.717056 -7.069763,2.717056 2.532387,-2.523876 3.172431,-7.315532 2.584771,-10.461146 2.140528,0.193799 4.738651,1.5163 4.484992,7.74409 z"
         style="fill:currentColor;fill-opacity:1;paint-order:markers fill stroke"
         id="path10" /><path
         style="fill:currentColor;fill-opacity:1;stroke-width:1;paint-order:markers fill stroke"
         d="m 45.228303,25.579928 c 0,0 3.546067,5.40982 -1.175491,12.994865 -5.713056,9.177857 -2.30847,12.769658 -2.30847,12.769658 1.630968,-9.29496 15.033744,-14.194092 3.483961,-25.764523 z"
         id="path2"
         transform="matrix(0.83954262,0,0,0.83954262,9.293597,7.8108184)" /><path
         style="fill:currentColor;fill-opacity:1;stroke-width:1;paint-order:markers fill stroke"
         d="m 45.228303,25.579928 c 0,0 3.546067,5.40982 -1.175491,12.994865 -5.713056,9.177857 -2.30847,12.769658 -2.30847,12.769658 1.630968,-9.29496 15.033744,-14.194092 3.483961,-25.764523 z"
         id="path6"
         transform="matrix(0.70908761,0,0,0.70908761,22.2819,14.508959)" /><path
         style="fill:currentColor;fill-opacity:1;stroke-width:1;paint-order:markers fill stroke"
         d="m 45.228303,25.579928 c 0,0 3.546067,5.40982 -1.175491,12.994865 -5.713056,9.177857 -2.30847,12.769658 -2.30847,12.769658 1.630968,-9.29496 15.033744,-14.194092 3.483961,-25.764523 z"
         id="path8"
         transform="matrix(0.56202923,0,0,0.56202923,34.754157,22.059591)" /></g></g></svg>
